<svg xmlns="http://www.w3.org/2000/svg" viewBox="0 0 64 64" role="img" aria-labelledby="t d"><title id="t">Process Genome mark</title><desc id="d">Two process strands connected by four evidence nodes.</desc><defs><linearGradient id="g" x1="0" x2="1"><stop stop-color="#3f7cff"/><stop offset="1" stop-color="#16c7b7"/></linearGradient></defs><rect width="64" height="64" rx="16" fill="#0b1220"/><path d="M16 12c0 15 32 15 32 32 0 4-2 7-5 9M48 12c0 15-32 15-32 32 0 4 2 7 5 9" fill="none" stroke="url(#g)" stroke-width="4" stroke-linecap="round"/><g fill="#fff"><circle cx="22" cy="20" r="2.4"/><circle cx="42" cy="20" r="2.4"/><circle cx="20" cy="32" r="2.4"/><circle cx="44" cy="32" r="2.4"/><circle cx="22" cy="44" r="2.4"/><circle cx="42" cy="44" r="2.4"/></g><path d="M22 20h20M20 32h24M22 44h20" stroke="#fff" stroke-width="1.8" stroke-linecap="round" opacity=".7"/></svg>